<svg version="1" xmlns="http://www.w3.org/2000/svg" width="832" height="832" viewBox="0 0 624.000000 624.000000"><path d="M245.8.4c-.1.2-3.4.6-7.3 1-32.8 3.1-62.2 11.8-93.5 27.9-15.5 8-33.2 20-48 32.6-13.4 11.4-34.8 34.9-41.6 45.6-1 1.6-2.1 3.2-2.4 3.5-.3.3-2.2 3-4.1 6-13.4 20.7-24.9 46.3-31.2 69.5-3.5 12.8-5 19.8-7.1 33.5-3.2 20-2.7 61.4.7 77 .2.8.7 3.7 1.1 6.5 2.3 14.8 10 39.5 17.7 56.5 4.4 9.9 13.7 27.9 15 29 .3.3 1.6 2.3 2.9 4.5 2.9 4.9 17.4 24.4 22.6 30.5 5.6 6.4 20.1 20.7 26.3 26 3 2.5 5.9 5 6.5 5.5 2.1 1.9 15.1 11.2 21.1 15.1 3.3 2.1 6.2 4.1 6.5 4.4.6.6 4.9 3 16.5 8.9 7.6 4 13.9 6.8 27 12.1 1.8.8 11.7 4 14 4.7 16 4.2 24.7 6.4 27.5 6.8 1.9.3 4.6.7 6 1 2.6.5 7.8 1.3 14 2 1.9.3 9.2.7 16.2 1 6.9.2 13 .5 13.5.6.4.1 1 .1 1.3 0 .3-.1 4.8-.4 10.1-.6 11.3-.4 16.8-1 30.9-3.5 13.8-2.5 15.3-2.8 23.5-5.1 3.8-1.2 8.4-2.4 10-2.9 21.1-5.6 60.2-25.9 78.1-40.7l4.3-3.4 1 3.9c.6 2.1 2.6 5.9 4.5 8.3 1.9 2.4 34.5 35.3 72.3 73 49.5 49.4 69.9 69.1 72.7 70.3 7.3 3 17.8 2.5 21.8-1.1 1-.9 1.8-1.3 1.8-1 0 1.3 5.9-5.2 7.6-8.4 2.4-4.6 2.6-5.5 2.6-12.1.1-3.9-.6-7-2.1-10-1.5-2.9-25.3-27.4-71.4-73.6-38.1-38.1-70.5-70.3-72.1-71.4-1.6-1.2-4.4-2.7-6.3-3.3l-3.5-1.2 5.5-6.4c5.9-7 19-24.7 22.2-30 6.9-11.5 9.1-15.5 13.6-24.9 4.8-9.8 10.9-24.2 11.3-26.5.1-.6.7-2.4 1.3-4 3.1-7.7 7.6-26.5 10.8-45 2.7-15.7 2.7-56.9.1-72-.3-1.7-.8-4.4-1-6-.7-5.5-4.6-22.9-6.3-28.5-.9-3-1.7-6-1.9-6.5-.4-2-5.6-16.1-7-19.2-.8-1.7-1.4-3.4-1.4-3.8 0-1.3-11.4-23.9-15.3-30.5-4.7-7.7-12.9-20.3-13.7-21-.3-.3-3-3.7-6-7.5-9.4-12.1-23.3-26.6-33.4-35-2.6-2.2-5.3-4.5-5.9-5-3.3-2.9-14.1-10.8-20.7-15.1-4.1-2.7-7.7-5.1-8-5.4-1.5-1.5-25.1-13.4-33.5-16.9-16.4-6.9-37.9-13.3-51-15.4-1.6-.3-4.1-.7-5.5-1.1-1.4-.3-4.5-.8-7-1.1-2.5-.4-5.8-.8-7.5-1.1-3.5-.5-46.2-1.4-46.7-1zm44.7 33.1c12.4 2 22.6 3.9 27.5 5.2 3 .8 6.9 1.8 8.5 2.3 4.3 1.1 12.5 3.9 16 5.5 1.7.7 4.1 1.6 5.5 2 4.7 1.4 27.6 13.2 35.1 18.1 8.6 5.6 17.4 12 23.9 17.2 6.2 5.1 26 25 29.6 29.8 1.6 2.1 3.4 4.5 4.1 5.1 1.6 1.8 13.8 19.5 14.6 21.3.4.8 1.6 2.8 2.6 4.5 3.6 5.7 13.5 26.2 13.2 27.3-.1.1.5 1.5 1.4 3.1 3.5 6.9 9.3 27.1 12 42.2 4 22.1 4.2 55.5.5 75-.6 3-1.3 6.7-1.6 8.4-1.7 10.1-8.3 31.4-12.9 42-5.5 12.8-19.5 37.7-24.5 43.8-.5.6-4 5-7.7 9.7-7.3 9.2-22.8 25.1-30.7 31.5-2.7 2.2-5.5 4.6-6.2 5.3-.7.6-1.5 1.2-1.9 1.2-.5 0-1.5.7-4.8 3.5-10 8.7-49 28.7-60.2 30.9-.5.1-1.4.4-2 .7-1.2.8-20.5 5.8-24.3 6.4-6.6 1-9.8 1.6-11 2-5.2 1.8-41.4 2.6-56.3 1.3-7.4-.7-30.6-5-36.4-6.8-25.9-8.1-44-16.4-62.8-28.7-7.8-5.1-7.6-4.9-12.7-9-1.9-1.6-5.2-4.1-7.2-5.6-4.3-3.2-22.8-21.3-27.9-27.3-7-8.4-19.4-25.4-21-28.9-.5-1.1-1.8-3.4-2.9-5-2.3-3.6-13-25.3-13-26.4 0-.4-.9-2.6-2-4.9-1.1-2.2-2.2-4.9-2.3-5.9-.2-1-.7-2.7-1.1-3.8-2.2-5.8-2.7-7.2-3.1-9-.2-1.1-1-4-1.6-6.5-.6-2.5-1.3-5.4-1.5-6.5-.1-1.1-.6-3.1-.9-4.5-.7-2.5-1-4.4-1.9-11-.3-1.9-.8-5.5-1.2-8-1.6-9.4-.8-52.1 1.1-59 .2-.8.7-3.1 1-5 1.8-11.3 8.3-34.2 12.1-42.7.8-1.7 1.4-3.4 1.4-3.8 0-1.5 12.3-25 17.1-32.7 4.7-7.5 13.6-19.8 19.3-26.6 3.2-3.9 20.5-21.2 25.6-25.6 6.2-5.4 20.2-15.5 28-20.2 3.6-2.1 6.7-4.1 7-4.4 2-2.2 35.8-16.9 40-17.5.3 0 1-.3 1.5-.6 1.3-.8 20.7-5.9 24.3-6.4 1.5-.2 5.2-.9 8.2-1.5 3-.6 8.7-1.3 12.5-1.7 3.9-.3 7.2-.7 7.3-.8.7-.6 38.7.3 42.7 1z"/><path d="M156.1 177.2c-3.6 1.1-8.1 3.1-10 4.6-4.6 3.2-12.1 11.3-12.1 12.9 0 .7-.4 1.3-.9 1.3-1.5 0-4.6 11.4-4.7 18-.3 11.9 4.3 23.4 12 29.9 1.5 1.4 3.4 2.9 4 3.5 7.6 6.9 25.2 9.5 36.5 5.5 16.9-5.9 27.7-22 26.7-39.5-.5-8.6-1.9-13.2-6.4-20.1-9.4-14.6-28.4-21.4-45.1-16.1zM350 176.7c-11.4 2.9-21.1 11.1-26.2 22-5.4 11.5-4.5 26.7 2.3 37.4 7.6 12 20 18.9 33.9 18.9 11.4 0 19.7-3.6 28-11.9 8.9-8.9 12-17.2 11.5-30.5-.4-11.8-6.8-23.1-17.5-30.8-7.9-5.7-21.5-7.9-32-5.1zM177.1 309.7c-6.4 3.2-9.8 10.5-8.4 18.2 1.3 7.6 18.5 19.9 42.6 30.6 4.2 1.8 19.1 6.5 22.2 6.9 1.1.2 3.4.6 5 .9 7.9 1.7 13 2.1 25 2 17.9 0 28.8-1.5 43-5.9 6.3-2 19.8-7.4 20.5-8.3.3-.3 1.9-1.2 3.5-1.9 4.2-1.9 15.8-9.4 16.8-10.9.4-.7 1.3-1.3 1.9-1.3 1.7 0 8.3-7.2 9.6-10.5 2.3-6.1.1-13.9-5-17.8-6.9-5.2-14.2-4.5-22.9 2.2-3 2.3-5.9 4.5-6.4 4.9-4.7 3.3-20.8 11.2-22.8 11.2-.7 0-1.8.5-2.5 1.2s-1.2.9-1.2.5-.8-.3-1.8.2c-1.1.6-3 1.2-4.3 1.5-1.3.3-3.5.7-4.8 1-9 2-29.4 2.6-38.1 1.2-2.5-.4-5.7-.9-7.1-1.1-5-.9-16.2-4.7-23.8-8.1-6.8-3.1-16.8-8.9-18.1-10.4-.3-.3-2.6-2.1-5.1-3.9-5.6-3.9-12.6-4.9-17.8-2.4z"/></svg>